<svg id="Layer_1" data-name="Layer 1" xmlns="http://www.w3.org/2000/svg" viewBox="0 0 86 120"><defs><style>.cls-1{fill:#8accf9;}.cls-2{fill:#b6e5ff;}.cls-3{fill:#4c97c1;}</style></defs><title>file_peter</title><path class="cls-1" d="M29,122a6,6,0,0,1-6-6V12a6,6,0,0,1,6-6H78.17L105,32.83V116a6,6,0,0,1-6,6Z" transform="translate(-21 -4)"/><path d="M77.34,8,103,33.66V116a4,4,0,0,1-4,4H29a4,4,0,0,1-4-4V12a4,4,0,0,1,4-4H77.34M79,4H29a8,8,0,0,0-8,8V116a8,8,0,0,0,8,8H99a8,8,0,0,0,8-8V32L79,4Z" transform="translate(-21 -4)"/><path class="cls-2" d="M87,30a6,6,0,0,1-6-6V8.83L102.17,30Z" transform="translate(-21 -4)"/><path d="M83,13.66,97.34,28H87a4,4,0,0,1-4-4V13.66M79,4V24a8,8,0,0,0,8,8h20L79,4Z" transform="translate(-21 -4)"/><rect class="cls-3" x="27" y="40" width="48" height="8" rx="4"/><rect class="cls-3" x="11" y="57" width="64" height="8" rx="4"/><rect class="cls-3" x="11" y="74" width="64" height="8" rx="4"/><rect class="cls-3" x="11" y="91" width="64" height="8" rx="4"/></svg>