<svg id="Layer_1" data-name="Layer 1" xmlns="http://www.w3.org/2000/svg" viewBox="0 0 86 120"><defs><style>.cls-1{fill:#fff;}.cls-2{fill:#29abe2;}.cls-3{fill:#22b573;}.cls-4{fill:#fbb03b;}.cls-5{fill:#b3b3b3;}</style></defs><title>kanban_peter</title><rect class="cls-1" x="2" y="2" width="82" height="116" rx="3.05"/><path d="M102,8a1,1,0,0,1,1,1.05V119a1,1,0,0,1-1,1H26.05A1,1,0,0,1,25,119V9.05A1,1,0,0,1,26.05,8H102m0-4H26.05A5,5,0,0,0,21,9.05V119a5,5,0,0,0,5.05,5H102a5,5,0,0,0,5-5V9.05A5,5,0,0,0,102,4Z" transform="translate(-21 -4)"/><path class="cls-2" d="M62.75,33.5a.36.36,0,0,1-.36-.31l-.29-2a1.35,1.35,0,0,0-.92-1.09,6.29,6.29,0,0,1-.71-.3,1.48,1.48,0,0,0-.62-.14,1.34,1.34,0,0,0-.81.27l-1.61,1.21a.38.38,0,0,1-.21.07A.36.36,0,0,1,57,31.1L55.9,30a.37.37,0,0,1,0-.47L57.07,28a1.37,1.37,0,0,0,.12-1.43c-.11-.23-.2-.47-.29-.71a1.35,1.35,0,0,0-1.09-.92l-2-.29a.36.36,0,0,1-.31-.36v-1.5a.36.36,0,0,1,.31-.36l2-.29a1.35,1.35,0,0,0,1.09-.92,6.29,6.29,0,0,1,.3-.71A1.39,1.39,0,0,0,57.07,19l-1.21-1.61a.37.37,0,0,1,0-.47L57,15.9a.36.36,0,0,1,.26-.11.34.34,0,0,1,.21.07L59,17.07a1.35,1.35,0,0,0,1.43.12c.23-.11.47-.2.71-.29a1.35,1.35,0,0,0,.92-1.09l.29-2a.36.36,0,0,1,.36-.31h1.5a.36.36,0,0,1,.36.31l.29,2a1.35,1.35,0,0,0,.92,1.09c.24.09.48.18.71.29a1.35,1.35,0,0,0,.62.15,1.29,1.29,0,0,0,.8-.27l1.62-1.21a.34.34,0,0,1,.21-.07.36.36,0,0,1,.26.11L71.1,17a.35.35,0,0,1,0,.47L69.93,19a1.41,1.41,0,0,0-.13,1.43,6.29,6.29,0,0,1,.3.71,1.35,1.35,0,0,0,1.09.92l2,.29a.36.36,0,0,1,.31.36v1.5a.36.36,0,0,1-.31.36l-2,.29a1.35,1.35,0,0,0-1.1.92,6.29,6.29,0,0,1-.3.71A1.41,1.41,0,0,0,69.93,28l1.21,1.61a.35.35,0,0,1,0,.47L70,31.1a.36.36,0,0,1-.26.11h0a.34.34,0,0,1-.21-.07L68,29.93a1.34,1.34,0,0,0-.81-.27,1.48,1.48,0,0,0-.62.14,6.29,6.29,0,0,1-.71.3,1.35,1.35,0,0,0-.92,1.09l-.29,2a.36.36,0,0,1-.36.31Zm.75-15a5,5,0,1,0,5,5A5,5,0,0,0,63.5,18.5Z" transform="translate(-21 -4)"/><path d="M64.13,14l.27,1.88a1.87,1.87,0,0,0,1.25,1.49,4.84,4.84,0,0,1,.66.28,2,2,0,0,0,.84.19,1.85,1.85,0,0,0,1.11-.37l1.51-1.13.89.89-1.13,1.51a1.9,1.9,0,0,0-.18,2,4.84,4.84,0,0,1,.28.66,1.87,1.87,0,0,0,1.49,1.25l1.88.27v1.26l-1.88.27a1.87,1.87,0,0,0-1.49,1.25,4.84,4.84,0,0,1-.28.66,1.9,1.9,0,0,0,.18,2l1.13,1.51-.89.89-1.51-1.13a1.85,1.85,0,0,0-1.11-.37,2,2,0,0,0-.84.19,4.84,4.84,0,0,1-.66.28,1.87,1.87,0,0,0-1.25,1.49L64.13,33H62.87l-.27-1.88a1.87,1.87,0,0,0-1.25-1.49,4.84,4.84,0,0,1-.66-.28,2,2,0,0,0-.84-.19,1.85,1.85,0,0,0-1.11.37l-1.51,1.13-.89-.89,1.13-1.51a1.9,1.9,0,0,0,.18-2,4.84,4.84,0,0,1-.28-.66,1.87,1.87,0,0,0-1.49-1.25L54,24.13V22.87l1.88-.27a1.87,1.87,0,0,0,1.49-1.25,4.84,4.84,0,0,1,.28-.66,1.9,1.9,0,0,0-.18-2l-1.13-1.51.89-.89,1.51,1.13a1.85,1.85,0,0,0,1.11.37,2,2,0,0,0,.84-.19,4.84,4.84,0,0,1,.66-.28,1.87,1.87,0,0,0,1.25-1.49L62.87,14h1.26M63.5,29A5.5,5.5,0,1,0,58,23.5,5.51,5.51,0,0,0,63.5,29m.75-16h-1.5a.87.87,0,0,0-.86.74l-.28,2a.88.88,0,0,1-.59.7c-.26.09-.52.2-.77.31a.79.79,0,0,1-.4.1.87.87,0,0,1-.51-.17l-1.61-1.21a.87.87,0,0,0-.51-.17.9.9,0,0,0-.61.25l-1.07,1.07a.87.87,0,0,0-.08,1.12l1.21,1.61a.86.86,0,0,1,.07.91c-.11.25-.22.51-.31.77a.88.88,0,0,1-.7.59l-2,.28a.87.87,0,0,0-.74.86v1.5a.87.87,0,0,0,.74.86l2,.28a.88.88,0,0,1,.7.59c.09.26.2.52.31.77a.86.86,0,0,1-.07.91l-1.21,1.61a.87.87,0,0,0,.08,1.12l1.07,1.07a.9.9,0,0,0,.61.25.87.87,0,0,0,.51-.17l1.61-1.21a.87.87,0,0,1,.51-.17.79.79,0,0,1,.4.1c.25.11.51.22.77.31a.88.88,0,0,1,.59.7l.28,2a.87.87,0,0,0,.86.74h1.5a.87.87,0,0,0,.86-.74l.28-2a.88.88,0,0,1,.59-.7c.26-.09.52-.2.77-.31a.79.79,0,0,1,.4-.1.87.87,0,0,1,.51.17l1.61,1.21a.87.87,0,0,0,.51.17.9.9,0,0,0,.61-.25l1.07-1.07a.87.87,0,0,0,.08-1.12l-1.21-1.61a.86.86,0,0,1-.07-.91c.11-.25.22-.51.31-.77a.88.88,0,0,1,.7-.59l2-.28a.87.87,0,0,0,.74-.86v-1.5a.87.87,0,0,0-.74-.86l-2-.28a.88.88,0,0,1-.7-.59c-.09-.26-.2-.52-.31-.77a.86.86,0,0,1,.07-.91l1.21-1.61a.87.87,0,0,0-.08-1.12l-1.07-1.07a.9.9,0,0,0-.61-.25.87.87,0,0,0-.51.17l-1.61,1.21a.87.87,0,0,1-.51.17.79.79,0,0,1-.4-.1c-.25-.11-.51-.22-.77-.31a.88.88,0,0,1-.59-.7l-.28-2a.87.87,0,0,0-.86-.74ZM63.5,28A4.5,4.5,0,1,1,68,23.5,4.49,4.49,0,0,1,63.5,28Z" transform="translate(-21 -4)"/><polygon class="cls-3" points="58.66 20.33 60.7 18.34 65.46 23.22 77.78 11.22 79.77 13.26 65.48 27.17 65.39 27.24 58.66 20.33"/><path d="M98.78,15.75l1.46,1.5L86.49,30.64l0-.05-.08.08-6.17-6.34,1.5-1.46,4.24,4.35.52.53.54-.52L98.78,15.75m0-1.06-12.33,12-4.75-4.88-2.58,2.51,7.22,7.41.08-.08,0,.05L101.3,17.26l-2.51-2.57Z" transform="translate(-21 -4)"/><path d="M43.57,15.43a1.14,1.14,0,0,1,1.14,1.14V30.86A1.14,1.14,0,0,1,43.57,32H32.14A1.14,1.14,0,0,1,31,30.86V16.57a1.14,1.14,0,0,1,1.14-1.14H43.57m0-1H32.14A2.14,2.14,0,0,0,30,16.57V30.86A2.14,2.14,0,0,0,32.14,33H43.57a2.14,2.14,0,0,0,2.14-2.14V16.57a2.14,2.14,0,0,0-2.14-2.14Z" transform="translate(-21 -4)"/><path class="cls-4" d="M34.64,16.29a1.51,1.51,0,1,1,0-3h6.43a1.51,1.51,0,1,1,0,3Z" transform="translate(-21 -4)"/><path d="M41.07,13.56a1.23,1.23,0,0,1,0,2.46H34.64a1.23,1.23,0,0,1,0-2.46h6.43m0-.56H34.64a1.79,1.79,0,0,0,0,3.57h6.43a1.79,1.79,0,1,0,0-3.57Z" transform="translate(-21 -4)"/><rect x="11.35" y="15.64" width="1.73" height="1.73"/><path d="M33.87,19.85v1.3H32.56v-1.3h1.31m.42-.42H32.14v2.14h2.15V19.43Z" transform="translate(-21 -4)"/><rect x="15.81" y="15.81" width="6.38" height="1.38"/><path d="M42.81,20.19v.62H37.19v-.62h5.62m.76-.76H36.43v2.14h7.14V19.43Z" transform="translate(-21 -4)"/><rect x="15.81" y="24.38" width="6.38" height="1.38"/><path d="M42.81,28.76v.62H37.19v-.62h5.62m.76-.76H36.43v2.14h7.14V28Z" transform="translate(-21 -4)"/><rect x="15.81" y="20.1" width="6.38" height="1.38"/><path d="M42.81,24.48v.62H37.19v-.62h5.62m.76-.77H36.43v2.15h7.14V23.71Z" transform="translate(-21 -4)"/><rect x="11.35" y="24.21" width="1.73" height="1.73"/><path d="M33.87,28.42v1.31H32.56V28.42h1.31m.42-.42H32.14v2.14h2.15V28Z" transform="translate(-21 -4)"/><rect x="11.35" y="19.92" width="1.73" height="1.73"/><path d="M33.87,24.13v1.31H32.56V24.13h1.31m.42-.42H32.14v2.15h2.15V23.71Z" transform="translate(-21 -4)"/><path d="M71,40.87a1,1,0,0,1,1,1v9.28a1,1,0,0,1-1,1H57.86a1,1,0,0,1-1-1V41.86a1,1,0,0,1,1-1H71M71,40H57.86A1.86,1.86,0,0,0,56,41.86v9.28A1.86,1.86,0,0,0,57.86,53H71a1.85,1.85,0,0,0,1.85-1.86V41.86A1.85,1.85,0,0,0,71,40Z" transform="translate(-21 -4)"/><rect class="cls-5" x="36.8" y="38.78" width="1.32" height="1.32"/><path class="cls-5" d="M59,42.94v1H58v-1h1m.32-.32H57.64v1.64h1.64V42.62Z" transform="translate(-21 -4)"/><rect class="cls-5" x="40.3" y="39.01" width="8.84" height="0.87"/><path class="cls-5" d="M69.76,43.39v.1H61.69v-.1h8.07m.77-.77H60.92v1.64h9.61V42.62Z" transform="translate(-21 -4)"/><rect class="cls-5" x="40.3" y="45.56" width="8.84" height="0.87"/><path class="cls-5" d="M69.76,50V50H61.69V50h8.07m.77-.77H60.92v1.64h9.61V49.18Z" transform="translate(-21 -4)"/><rect class="cls-5" x="40.3" y="42.29" width="8.84" height="0.87"/><path class="cls-5" d="M69.76,46.67v.1H61.69v-.1h8.07m.77-.77H60.92v1.64h9.61V45.9Z" transform="translate(-21 -4)"/><rect class="cls-5" x="36.8" y="45.34" width="1.32" height="1.32"/><path class="cls-5" d="M59,49.5v1H58v-1h1m.32-.32H57.64v1.64h1.64V49.18Z" transform="translate(-21 -4)"/><rect class="cls-5" x="36.8" y="42.06" width="1.32" height="1.32"/><path class="cls-5" d="M59,46.22v1H58v-1h1m.32-.32H57.64v1.64h1.64V45.9Z" transform="translate(-21 -4)"/><path d="M71,61.87a1,1,0,0,1,1,1v9.28a1,1,0,0,1-1,1H57.86a1,1,0,0,1-1-1V62.86a1,1,0,0,1,1-1H71M71,61H57.86A1.86,1.86,0,0,0,56,62.86v9.28A1.86,1.86,0,0,0,57.86,74H71a1.85,1.85,0,0,0,1.85-1.86V62.86A1.85,1.85,0,0,0,71,61Z" transform="translate(-21 -4)"/><rect class="cls-5" x="36.8" y="59.78" width="1.32" height="1.32"/><path class="cls-5" d="M59,63.94v1H58v-1h1m.32-.32H57.64v1.64h1.64V63.62Z" transform="translate(-21 -4)"/><rect class="cls-5" x="40.3" y="60.01" width="8.84" height="0.87"/><path class="cls-5" d="M69.76,64.39v.1H61.69v-.1h8.07m.77-.77H60.92v1.64h9.61V63.62Z" transform="translate(-21 -4)"/><rect class="cls-5" x="40.3" y="66.56" width="8.84" height="0.87"/><path class="cls-5" d="M69.76,71V71H61.69V71h8.07m.77-.77H60.92v1.64h9.61V70.18Z" transform="translate(-21 -4)"/><rect class="cls-5" x="40.3" y="63.29" width="8.84" height="0.87"/><path class="cls-5" d="M69.76,67.67v.1H61.69v-.1h8.07m.77-.77H60.92v1.64h9.61V66.9Z" transform="translate(-21 -4)"/><rect class="cls-5" x="36.8" y="66.34" width="1.32" height="1.32"/><path class="cls-5" d="M59,70.5v1H58v-1h1m.32-.32H57.64v1.64h1.64V70.18Z" transform="translate(-21 -4)"/><rect class="cls-5" x="36.8" y="63.06" width="1.32" height="1.32"/><path class="cls-5" d="M59,67.22v1H58v-1h1m.32-.32H57.64v1.64h1.64V66.9Z" transform="translate(-21 -4)"/><path d="M97,40.87a1,1,0,0,1,1,1v9.28a1,1,0,0,1-1,1H83.86a1,1,0,0,1-1-1V41.86a1,1,0,0,1,1-1H97M97,40H83.86A1.86,1.86,0,0,0,82,41.86v9.28A1.86,1.86,0,0,0,83.86,53H97a1.85,1.85,0,0,0,1.85-1.86V41.86A1.85,1.85,0,0,0,97,40Z" transform="translate(-21 -4)"/><rect class="cls-5" x="62.8" y="38.78" width="1.32" height="1.32"/><path class="cls-5" d="M85,42.94v1H84v-1h1m.32-.32H83.64v1.64h1.64V42.62Z" transform="translate(-21 -4)"/><rect class="cls-5" x="66.3" y="39.01" width="8.84" height="0.87"/><path class="cls-5" d="M95.76,43.39v.1H87.69v-.1h8.07m.77-.77H86.92v1.64h9.61V42.62Z" transform="translate(-21 -4)"/><rect class="cls-5" x="66.3" y="45.56" width="8.84" height="0.87"/><path class="cls-5" d="M95.76,50V50H87.69V50h8.07m.77-.77H86.92v1.64h9.61V49.18Z" transform="translate(-21 -4)"/><rect class="cls-5" x="66.3" y="42.29" width="8.84" height="0.87"/><path class="cls-5" d="M95.76,46.67v.1H87.69v-.1h8.07m.77-.77H86.92v1.64h9.61V45.9Z" transform="translate(-21 -4)"/><rect class="cls-5" x="62.8" y="45.34" width="1.32" height="1.32"/><path class="cls-5" d="M85,49.5v1H84v-1h1m.32-.32H83.64v1.64h1.64V49.18Z" transform="translate(-21 -4)"/><rect class="cls-5" x="62.8" y="42.06" width="1.32" height="1.32"/><path class="cls-5" d="M85,46.22v1H84v-1h1m.32-.32H83.64v1.64h1.64V45.9Z" transform="translate(-21 -4)"/><path d="M45,81.87a1,1,0,0,1,1,1v9.28a1,1,0,0,1-1,1H31.86a1,1,0,0,1-1-1V82.86a1,1,0,0,1,1-1H45M45,81H31.86A1.86,1.86,0,0,0,30,82.86v9.28A1.86,1.86,0,0,0,31.86,94H45a1.85,1.85,0,0,0,1.85-1.86V82.86A1.85,1.85,0,0,0,45,81Z" transform="translate(-21 -4)"/><rect class="cls-5" x="10.8" y="79.78" width="1.32" height="1.32"/><path class="cls-5" d="M33,83.94v1H32v-1h1m.32-.32H31.64v1.64h1.64V83.62Z" transform="translate(-21 -4)"/><rect class="cls-5" x="14.3" y="80.01" width="8.84" height="0.87"/><path class="cls-5" d="M43.76,84.39v.1H35.69v-.1h8.07m.77-.77H34.92v1.64h9.61V83.62Z" transform="translate(-21 -4)"/><rect class="cls-5" x="14.3" y="86.56" width="8.84" height="0.87"/><path class="cls-5" d="M43.76,91V91H35.69V91h8.07m.77-.77H34.92v1.64h9.61V90.18Z" transform="translate(-21 -4)"/><rect class="cls-5" x="14.3" y="83.29" width="8.84" height="0.87"/><path class="cls-5" d="M43.76,87.67v.1H35.69v-.1h8.07m.77-.77H34.92v1.64h9.61V86.9Z" transform="translate(-21 -4)"/><rect class="cls-5" x="10.8" y="86.34" width="1.32" height="1.32"/><path class="cls-5" d="M33,90.5v1H32v-1h1m.32-.32H31.64v1.64h1.64V90.18Z" transform="translate(-21 -4)"/><rect class="cls-5" x="10.8" y="83.06" width="1.32" height="1.32"/><path class="cls-5" d="M33,87.22v1H32v-1h1m.32-.32H31.64v1.64h1.64V86.9Z" transform="translate(-21 -4)"/><path d="M45,101.87a1,1,0,0,1,1,1v9.28a1,1,0,0,1-1,1H31.86a1,1,0,0,1-1-1v-9.28a1,1,0,0,1,1-1H45m0-.87H31.86A1.86,1.86,0,0,0,30,102.86v9.28A1.86,1.86,0,0,0,31.86,114H45a1.85,1.85,0,0,0,1.85-1.86v-9.28A1.85,1.85,0,0,0,45,101Z" transform="translate(-21 -4)"/><rect class="cls-5" x="10.8" y="99.78" width="1.32" height="1.32"/><path class="cls-5" d="M33,103.94v1H32v-1h1m.32-.32H31.64v1.64h1.64v-1.64Z" transform="translate(-21 -4)"/><rect class="cls-5" x="14.3" y="100.01" width="8.84" height="0.87"/><path class="cls-5" d="M43.76,104.39v.1H35.69v-.1h8.07m.77-.77H34.92v1.64h9.61v-1.64Z" transform="translate(-21 -4)"/><rect class="cls-5" x="14.3" y="106.56" width="8.84" height="0.87"/><path class="cls-5" d="M43.76,111V111H35.69V111h8.07m.77-.77H34.92v1.64h9.61v-1.64Z" transform="translate(-21 -4)"/><rect class="cls-5" x="14.3" y="103.29" width="8.84" height="0.87"/><path class="cls-5" d="M43.76,107.67v.1H35.69v-.1h8.07m.77-.77H34.92v1.64h9.61V106.9Z" transform="translate(-21 -4)"/><rect class="cls-5" x="10.8" y="106.34" width="1.32" height="1.32"/><path class="cls-5" d="M33,110.5v1H32v-1h1m.32-.32H31.64v1.64h1.64v-1.64Z" transform="translate(-21 -4)"/><rect class="cls-5" x="10.8" y="103.06" width="1.32" height="1.32"/><path class="cls-5" d="M33,107.22v1H32v-1h1m.32-.32H31.64v1.64h1.64V106.9Z" transform="translate(-21 -4)"/><path d="M45,61.87a1,1,0,0,1,1,1v9.28a1,1,0,0,1-1,1H31.86a1,1,0,0,1-1-1V62.86a1,1,0,0,1,1-1H45M45,61H31.86A1.86,1.86,0,0,0,30,62.86v9.28A1.86,1.86,0,0,0,31.86,74H45a1.85,1.85,0,0,0,1.85-1.86V62.86A1.85,1.85,0,0,0,45,61Z" transform="translate(-21 -4)"/><rect class="cls-5" x="10.8" y="59.78" width="1.32" height="1.32"/><path class="cls-5" d="M33,63.94v1H32v-1h1m.32-.32H31.64v1.64h1.64V63.62Z" transform="translate(-21 -4)"/><rect class="cls-5" x="14.3" y="60.01" width="8.84" height="0.87"/><path class="cls-5" d="M43.76,64.39v.1H35.69v-.1h8.07m.77-.77H34.92v1.64h9.61V63.62Z" transform="translate(-21 -4)"/><rect class="cls-5" x="14.3" y="66.56" width="8.84" height="0.87"/><path class="cls-5" d="M43.76,71V71H35.69V71h8.07m.77-.77H34.92v1.64h9.61V70.18Z" transform="translate(-21 -4)"/><rect class="cls-5" x="14.3" y="63.29" width="8.84" height="0.87"/><path class="cls-5" d="M43.76,67.67v.1H35.69v-.1h8.07m.77-.77H34.92v1.64h9.61V66.9Z" transform="translate(-21 -4)"/><rect class="cls-5" x="10.8" y="66.34" width="1.32" height="1.32"/><path class="cls-5" d="M33,70.5v1H32v-1h1m.32-.32H31.64v1.64h1.64V70.18Z" transform="translate(-21 -4)"/><rect class="cls-5" x="10.8" y="63.06" width="1.32" height="1.32"/><path class="cls-5" d="M33,67.22v1H32v-1h1m.32-.32H31.64v1.64h1.64V66.9Z" transform="translate(-21 -4)"/><path d="M45,40.87a1,1,0,0,1,1,1v9.28a1,1,0,0,1-1,1H31.86a1,1,0,0,1-1-1V41.86a1,1,0,0,1,1-1H45M45,40H31.86A1.86,1.86,0,0,0,30,41.86v9.28A1.86,1.86,0,0,0,31.86,53H45a1.85,1.85,0,0,0,1.85-1.86V41.86A1.85,1.85,0,0,0,45,40Z" transform="translate(-21 -4)"/><rect class="cls-5" x="10.8" y="38.78" width="1.32" height="1.32"/><path class="cls-5" d="M33,42.94v1H32v-1h1m.32-.32H31.64v1.64h1.64V42.62Z" transform="translate(-21 -4)"/><rect class="cls-5" x="14.3" y="39.01" width="8.84" height="0.87"/><path class="cls-5" d="M43.76,43.39v.1H35.69v-.1h8.07m.77-.77H34.92v1.64h9.61V42.62Z" transform="translate(-21 -4)"/><rect class="cls-5" x="14.3" y="45.56" width="8.84" height="0.87"/><path class="cls-5" d="M43.76,50V50H35.69V50h8.07m.77-.77H34.92v1.64h9.61V49.18Z" transform="translate(-21 -4)"/><rect class="cls-5" x="14.3" y="42.29" width="8.84" height="0.87"/><path class="cls-5" d="M43.76,46.67v.1H35.69v-.1h8.07m.77-.77H34.92v1.64h9.61V45.9Z" transform="translate(-21 -4)"/><rect class="cls-5" x="10.8" y="45.34" width="1.32" height="1.32"/><path class="cls-5" d="M33,49.5v1H32v-1h1m.32-.32H31.64v1.64h1.64V49.18Z" transform="translate(-21 -4)"/><rect class="cls-5" x="10.8" y="42.06" width="1.32" height="1.32"/><path class="cls-5" d="M33,46.22v1H32v-1h1m.32-.32H31.64v1.64h1.64V45.9Z" transform="translate(-21 -4)"/><path d="M71.05,81.94a1,1,0,0,1,1,1v9.29a1,1,0,0,1-1,1H57.93a1,1,0,0,1-1-1V82.93a1,1,0,0,1,1-1H71.05m0-.87H57.93a1.86,1.86,0,0,0-1.85,1.86v9.29a1.85,1.85,0,0,0,1.85,1.85H71.05a1.85,1.85,0,0,0,1.85-1.85V82.93a1.86,1.86,0,0,0-1.85-1.86Z" transform="translate(-21 -4)"/><rect class="cls-5" x="36.88" y="79.86" width="1.32" height="1.32"/><path class="cls-5" d="M59,84v1H58V84h1m.31-.32H57.72v1.63h1.63V83.7Z" transform="translate(-21 -4)"/><rect class="cls-5" x="40.38" y="80.08" width="8.84" height="0.87"/><path class="cls-5" d="M69.83,84.47v.09H61.77v-.09h8.06m.78-.77H61v1.63h9.62V83.7Z" transform="translate(-21 -4)"/><rect class="cls-5" x="40.38" y="86.64" width="8.84" height="0.87"/><path class="cls-5" d="M69.83,91v.1H61.77V91h8.06m.78-.77H61v1.64h9.62V90.25Z" transform="translate(-21 -4)"/><rect class="cls-5" x="40.38" y="83.36" width="8.84" height="0.87"/><path class="cls-5" d="M69.83,87.75v.09H61.77v-.09h8.06m.78-.78H61v1.64h9.62V87Z" transform="translate(-21 -4)"/><rect class="cls-5" x="36.88" y="86.41" width="1.32" height="1.32"/><path class="cls-5" d="M59,90.57v1H58v-1h1m.31-.32H57.72v1.64h1.63V90.25Z" transform="translate(-21 -4)"/><rect class="cls-5" x="36.88" y="83.13" width="1.32" height="1.32"/><path class="cls-5" d="M59,87.29v1H58v-1h1m.31-.32H57.72v1.64h1.63V87Z" transform="translate(-21 -4)"/><path d="M97.05,61.94a1,1,0,0,1,1,1v9.29a1,1,0,0,1-1,1H83.93a1,1,0,0,1-1-1V62.93a1,1,0,0,1,1-1H97.05m0-.87H83.93a1.86,1.86,0,0,0-1.85,1.86v9.29a1.85,1.85,0,0,0,1.85,1.85H97.05a1.85,1.85,0,0,0,1.85-1.85V62.93a1.86,1.86,0,0,0-1.85-1.86Z" transform="translate(-21 -4)"/><rect class="cls-5" x="62.88" y="59.86" width="1.32" height="1.32"/><path class="cls-5" d="M85,64v1H84V64h1m.31-.32H83.72v1.63h1.63V63.7Z" transform="translate(-21 -4)"/><rect class="cls-5" x="66.38" y="60.08" width="8.84" height="0.87"/><path class="cls-5" d="M95.83,64.47v.09H87.77v-.09h8.06m.78-.77H87v1.63h9.62V63.7Z" transform="translate(-21 -4)"/><rect class="cls-5" x="66.38" y="66.64" width="8.84" height="0.87"/><path class="cls-5" d="M95.83,71v.1H87.77V71h8.06m.78-.77H87v1.64h9.62V70.25Z" transform="translate(-21 -4)"/><rect class="cls-5" x="66.38" y="63.36" width="8.84" height="0.87"/><path class="cls-5" d="M95.83,67.75v.09H87.77v-.09h8.06m.78-.78H87v1.64h9.62V67Z" transform="translate(-21 -4)"/><rect class="cls-5" x="62.88" y="66.41" width="1.32" height="1.32"/><path class="cls-5" d="M85,70.57v1H84v-1h1m.31-.32H83.72v1.64h1.63V70.25Z" transform="translate(-21 -4)"/><rect class="cls-5" x="62.88" y="63.13" width="1.32" height="1.32"/><path class="cls-5" d="M85,67.29v1H84v-1h1m.31-.32H83.72v1.64h1.63V67Z" transform="translate(-21 -4)"/></svg>