<svg height='100px' width='100px'  fill="#79989f" xmlns="http://www.w3.org/2000/svg" data-name="Layer 1" viewBox="0 0 100 100" x="0px" y="0px"><title>All3</title><path d="M99.11,29.58a2.82,2.82,0,0,0-4.1,0A11,11,0,0,0,94,31c-0.88-1.5-1.55-2.62-2.19-3.76a2.88,2.88,0,0,1-.18-0.88A14.45,14.45,0,0,0,91,23.35a27,27,0,0,0-2.18-4C85.6,14.21,81,10.45,76.29,6.88A36,36,0,0,0,65,1,18.11,18.11,0,0,0,53.64.87a10.89,10.89,0,0,0-1.41.72l0,0.37A17.92,17.92,0,0,0,54,2.48,27.89,27.89,0,0,1,64.57,6.4a12,12,0,0,1,4.91,5.85,6.6,6.6,0,0,1-.68,6.5c-1.08,1.49-1.42,3.08-.15,4.73L49.58,43.82,56,50.22,74.86,30.14c0.51,0.33.95,0.63,1.41,0.89a4.09,4.09,0,0,0,3.81.31,2.53,2.53,0,0,1,2.47.09c2.17,1.33,4.3,2.73,6.45,4.1L89.11,36a4.42,4.42,0,0,0-.93.61,3,3,0,0,0,0,4.23,2.81,2.81,0,0,0,4.1,0q3.49-3.49,6.89-7.07A3,3,0,0,0,99.11,29.58Z"></path><path d="M87,95.4a7.44,7.44,0,0,1-10.76,0L28,45.67l0,0a1.91,1.91,0,0,0-.91.18A20.66,20.66,0,0,1,.53,30.42,40.33,40.33,0,0,1,0,24,1.84,1.84,0,0,1,1.18,22.1a1.83,1.83,0,0,1,2.15.6c3.06,3.15,6.14,6.29,9.18,9.47a1.41,1.41,0,0,0,1.64.46c2.92-.88,5.85-1.7,8.79-2.48a1.24,1.24,0,0,0,1-1.06q1.05-4.42,2.16-8.81a1.34,1.34,0,0,0-.39-1.44c-3.06-3.11-6.09-6.25-9.15-9.36a2.13,2.13,0,0,1-.78-2.34,2.07,2.07,0,0,1,2.15-1.31c14.53-.94,25.48,13.63,21,27.94a1.81,1.81,0,0,0-.11.86L87,84.29A8,8,0,0,1,87,95.4Z"></path><path d="M34.42,56.77l-30.55,28a6.27,6.27,0,0,0-.38,8.93c1.46,1.58,3,3.1,4.49,4.62a6.54,6.54,0,0,0,9.23-.38c9-10.61,18.19-21.08,27.3-31.6l0.61-.69L35.8,55.5Z"></path></svg>