<svg height='100px' width='100px'  fill="#79989f" xmlns="http://www.w3.org/2000/svg" data-name="Layer 1" viewBox="0 0 100 100" x="0px" y="0px"><title>a</title><path d="M89.38232,27.98511H80V85.596h9.38232A5.61748,5.61748,0,0,0,95,79.978V33.603A5.61752,5.61752,0,0,0,89.38232,27.98511Z"></path><path d="M10.61816,85.596H20V27.98511H10.61816A5.61825,5.61825,0,0,0,5,33.603V79.978A5.61821,5.61821,0,0,0,10.61816,85.596Z"></path><path d="M72.50049,27.98511h-5.75v-.6554A12.56038,12.56038,0,0,0,56.50342,15.01477a34.9365,34.9365,0,0,0-13.25.04688A12.47709,12.47709,0,0,0,33.25049,27.32727v.65784h-5.75V85.596h45Zm-11.25,0h-22.5v-.65784a6.96609,6.96609,0,0,1,5.55957-6.86816,29.46738,29.46738,0,0,1,11.17383-.04,7.057,7.057,0,0,1,5.7666,6.91064Z"></path></svg>