<svg height='100px' width='100px'  fill="#79989f" xmlns="http://www.w3.org/2000/svg" xmlns:xlink="http://www.w3.org/1999/xlink" version="1.1" x="0px" y="0px" viewBox="0 0 100 100" enable-background="new 0 0 100 100" xml:space="preserve"><g><path d="M50,5C25.2,5,5,25.2,5,50s20.2,45,45,45s45-20.2,45-45S74.8,5,50,5z M50,85c-19.3,0-35-15.7-35-35s15.7-35,35-35   s35,15.7,35,35S69.3,85,50,85z"></path><path d="M55,45V35h10V25H55v-5H45v5c-8.3,0-15,6.7-15,15s6.7,15,15,15v10H32.5v10H45v5h10v-5c8.3,0,15-6.7,15-15S63.3,45,55,45z    M45,45c-2.8,0-5-2.2-5-5s2.2-5,5-5V45z M55,65V55c2.8,0,5,2.2,5,5S57.8,65,55,65z"></path></g></svg>