<svg height='100px' width='100px'  fill="#79989f" xmlns="http://www.w3.org/2000/svg" xmlns:xlink="http://www.w3.org/1999/xlink" version="1.1" x="0px" y="0px" viewBox="0 0 100 100" style="enable-background:new 0 0 100 100;" xml:space="preserve"><title>89all</title><path d="M80.2,12H68.6c-0.2-2.8-1.4-5.4-3.5-7.3c0,0,0,0,0,0C63.2,3,60.7,2,58.1,2H41.9c-2.6,0-5.1,1-7.1,2.7  c0,0,0,0,0,0c-2.1,1.9-3.3,4.5-3.5,7.3H19.8c-4.7,0-8.5,3.8-8.5,8.5v69c0,4.7,3.8,8.5,8.5,8.5h60.3c4.7,0,8.5-3.8,8.5-8.5v-69  C88.7,15.8,84.9,12,80.2,12z M69.2,68.9l-9.5,9.7v-9.2c0-0.3,0.2-0.5,0.5-0.5H69.2z M36.3,12.6c0-1.6,0.7-3.1,1.9-4.2c0,0,0,0,0,0  c1-0.9,2.4-1.4,3.7-1.4h16.1c1.4,0,2.7,0.5,3.7,1.4c0,0,0,0,0,0c1.2,1.1,1.9,2.6,1.9,4.2V24H36.3V12.6z M36.3,39.5h11.6  c1.4,0,2.5,1.1,2.5,2.5s-1.1,2.5-2.5,2.5H36.3c-1.4,0-2.5-1.1-2.5-2.5S34.9,39.5,36.3,39.5z M36.3,51.5h26.6c1.4,0,2.5,1.1,2.5,2.5  s-1.1,2.5-2.5,2.5H36.3c-1.4,0-2.5-1.1-2.5-2.5S34.9,51.5,36.3,51.5z M83.7,89.5c0,1.9-1.6,3.5-3.5,3.5H19.8c-1.9,0-3.5-1.6-3.5-3.5  v-69c0-1.9,1.6-3.5,3.5-3.5h11.5v3.9h-2.8c-3,0-5.5,2.5-5.5,5.5v55.3c0,3,2.5,5.5,5.5,5.5h29.9l18.6-19V26.4c0-3-2.5-5.5-5.5-5.5  h-2.8V17h11.5c1.9,0,3.5,1.6,3.5,3.5V89.5z"></path></svg>