<svg id="Layer_1" data-name="Layer 1" xmlns="http://www.w3.org/2000/svg" viewBox="0 0 88 122"><defs><style>.cls-1,.cls-3{fill:#fff;}.cls-2{fill:#b7c7d6;}.cls-3,.cls-5,.cls-7{stroke:#000;}.cls-3,.cls-5,.cls-6,.cls-7{stroke-miterlimit:10;}.cls-3,.cls-5,.cls-6{stroke-width:4px;}.cls-4{fill:#fdf39f;}.cls-5,.cls-6{fill:none;}.cls-6{stroke:#fcc033;}</style></defs><title>picture_peter</title><rect class="cls-1" x="2" y="2" width="82" height="116" rx="2"/><path d="M103,8V120H25V8h78m0-4H25a4,4,0,0,0-4,4V120a4,4,0,0,0,4,4h78a4,4,0,0,0,4-4V8a4,4,0,0,0-4-4Z" transform="translate(-21 -4)"/><polygon class="cls-2" points="88 79 53 47 29 73 16 61 6 71 6 122 88 122 88 79"/><path class="cls-3" d="M46.5,15" transform="translate(-21 -4)"/><path class="cls-3" d="M34,27.5" transform="translate(-21 -4)"/><path class="cls-3" d="M46.5,40" transform="translate(-21 -4)"/><path class="cls-3" d="M59,27.5" transform="translate(-21 -4)"/><circle class="cls-4" cx="25.5" cy="27.5" r="12.5"/><path class="cls-5" d="M94,21" transform="translate(-21 -4)"/><path class="cls-5" d="M94,32" transform="translate(-21 -4)"/><path class="cls-5" d="M81,32" transform="translate(-21 -4)"/><path class="cls-3" d="M44,33" transform="translate(-21 -4)"/><path class="cls-3" d="M46,32" transform="translate(-21 -4)"/><circle class="cls-6" cx="21.5" cy="23.5" r="12.5"/><path class="cls-5" d="M103.7,77.81,71.47,48.34a2,2,0,0,0-2.82.12L47.36,71.53a2,2,0,0,1-2.83.11L34.41,62.3a2,2,0,0,0-2.77.06l-7.47,7.47A4,4,0,0,0,23,72.66V118a4,4,0,0,0,4,4h74a4,4,0,0,0,4-4V80.76A4,4,0,0,0,103.7,77.81Z" transform="translate(-21 -4)"/><rect class="cls-7" x="53.5" y="16.5" width="18" height="2" rx="1"/><rect class="cls-7" x="60.5" y="24.5" width="11" height="2" rx="1"/></svg>